<svg width="36" height="25" viewBox="0 0 36 25" fill="none" xmlns="http://www.w3.org/2000/svg">
<rect x="0.5" y="0.5" width="35" height="23.6857" rx="2.5" fill="white" stroke="#E7E7E7"/>
<path d="M15.047 18.8521L15.3038 17.2567L14.7317 17.2437H12L13.8984 5.47148C13.9043 5.43594 13.9234 5.4028 13.9514 5.37927C13.9794 5.35574 14.0153 5.34277 14.0526 5.34277H18.6586C20.1878 5.34277 21.243 5.65397 21.794 6.26821C22.0523 6.55635 22.2168 6.85747 22.2963 7.18884C22.3798 7.53654 22.3813 7.95195 22.2998 8.45861L22.2939 8.49559V8.82023L22.5522 8.96335C22.7697 9.0762 22.9425 9.20539 23.0751 9.3533C23.2961 9.59967 23.439 9.91279 23.4994 10.284C23.5618 10.6658 23.5411 11.1201 23.439 11.6345C23.3211 12.2261 23.1306 12.7414 22.8733 13.1631C22.6366 13.5516 22.3351 13.8739 21.9771 14.1236C21.6354 14.3608 21.2293 14.5409 20.7701 14.6562C20.3252 14.7695 19.818 14.8267 19.2616 14.8267H18.9032C18.6468 14.8267 18.3979 14.917 18.2024 15.0788C18.0065 15.244 17.8769 15.4697 17.8371 15.7166L17.8101 15.8602L17.3564 18.672L17.3357 18.7752C17.3303 18.8079 17.321 18.8242 17.3073 18.8353C17.295 18.8454 17.2773 18.8521 17.2601 18.8521H15.047Z" fill="#253B80"/>
<path d="M22.7965 8.53223C22.7828 8.61819 22.767 8.70608 22.7494 8.79636C22.1419 11.8464 20.0638 12.9001 17.4097 12.9001H16.0583C15.7337 12.9001 15.4602 13.1306 15.4097 13.4437L14.7178 17.7352L14.5218 18.9516C14.4889 19.1572 14.651 19.3426 14.8631 19.3426H17.2599C17.5437 19.3426 17.7849 19.1409 17.8295 18.8671L17.8531 18.748L18.3044 15.9472L18.3334 15.7935C18.3776 15.5188 18.6191 15.3171 18.903 15.3171H19.2614C21.5836 15.3171 23.4015 14.3951 23.9328 11.7268C24.1547 10.6122 24.0398 9.68145 23.4525 9.02688C23.2748 8.8295 23.0543 8.66573 22.7965 8.53223Z" fill="#179BD7"/>
</svg>
