<svg width="23" height="16" viewBox="0 0 23 16" fill="none" xmlns="http://www.w3.org/2000/svg">
<rect x="0.5" y="0.5" width="22" height="15" rx="2" fill="white" stroke="#E7E7E7"/>
<path fill-rule="evenodd" clip-rule="evenodd" d="M7.02517 10.8392H5.63182L4.58697 6.79524C4.53738 6.60922 4.43208 6.44477 4.27718 6.36726C3.89063 6.17248 3.46468 6.01746 3 5.93928V5.78359H5.24458C5.55437 5.78359 5.78671 6.01746 5.82543 6.28908L6.36756 9.20609L7.76023 5.78359H9.11486L7.02517 10.8392ZM9.88932 10.8392H8.57341L9.65698 5.78359H10.9729L9.88932 10.8392ZM12.6754 7.18413C12.7141 6.91184 12.9464 6.75615 13.2175 6.75615C13.6434 6.71706 14.1074 6.79524 14.4947 6.98935L14.727 5.90087C14.3398 5.74517 13.9138 5.66699 13.5273 5.66699C12.2501 5.66699 11.3207 6.36726 11.3207 7.33915C11.3207 8.07851 11.979 8.46673 12.4437 8.7006C12.9464 8.9338 13.14 9.08949 13.1013 9.32269C13.1013 9.67249 12.7141 9.82818 12.3275 9.82818C11.8629 9.82818 11.3982 9.71158 10.9729 9.5168L10.7406 10.606C11.2052 10.8001 11.708 10.8783 12.1726 10.8783C13.6047 10.9167 14.4947 10.2171 14.4947 9.167C14.4947 7.84464 12.6754 7.76713 12.6754 7.18413ZM19.1 10.8392L18.0552 5.78359H16.9329C16.7005 5.78359 16.4682 5.93928 16.3907 6.17248L14.4559 10.8392H15.8106L16.081 10.1005H17.7454L17.9003 10.8392H19.1ZM17.1265 7.14505L17.513 9.05041H16.4294L17.1265 7.14505Z" fill="#172B85"/>
</svg>
